<svg xmlns="http://www.w3.org/2000/svg" xmlns:xlink="http://www.w3.org/1999/xlink" width="81" height="77" viewBox="0 0 81 77">
    <defs>
        <linearGradient id="prefix__a" x1="70.149%" x2="0%" y1="70.287%" y2="10.934%">
            <stop offset="0%" stop-opacity="0"/>
            <stop offset="100%"/>
        </linearGradient>
        <linearGradient id="prefix__c" x1="55.713%" x2="-22.657%" y1="62.191%" y2="-37.858%">
            <stop offset="0%" stop-color="#F3363C"/>
            <stop offset="100%" stop-color="#594CEA"/>
        </linearGradient>
        <linearGradient id="prefix__d" x1="61.212%" x2="77.231%" y1="31.921%" y2="77.324%">
            <stop offset="0%" stop-color="#962437"/>
            <stop offset="52%" stop-color="#E23135"/>
            <stop offset="100%" stop-color="#F2363B"/>
        </linearGradient>
        <rect id="prefix__b" width="60" height="60" x="0" y="0" rx="6"/>
    </defs>
    <g fill="none" fill-rule="evenodd">
        <path fill="url(#prefix__a)" d="M19.875 21L58.125 1.875 84 38.25 84 75.999 10.125 76.125 0 55.125z" opacity=".75"/>
        <mask id="prefix__e" fill="#fff">
            <use xlink:href="#prefix__b"/>
        </mask>
        <use fill="url(#prefix__c)" xlink:href="#prefix__b"/>
        <path fill="url(#prefix__d)" d="M16.527 21.314l3.103 5.233.71.312 3.292 5.372 3.292.173 3.12 5.199c-.765-2.137-.823-3.754-.174-4.852.649-1.098 2.382-1.618 5.199-1.56l3.292 5.719 1.213-.693c-1.353-4.119-1.7-7.411-1.04-9.878.66-2.466 1.758-3.275 3.293-2.426l1.386.52 2.6 4.506 2.252-5.026 2.08 3.986.173-3.986 9.704 15.192V60H24.434L7.69 28.071h3.812l3.119-1.213 1.906-5.545z" mask="url(#prefix__e)"/>
        <path fill="#FFF" fill-rule="nonzero" d="M17.698 39.75c-.75 0-1.35-.2-1.737-.35-.778-.303-1.918-1.198-2.403-2.115-.467-.885-.695-1.609-.809-3.561-.065-1.112.018-2.795.249-5.004-.518.008-1.467.083-1.477.084-.053.004-1.335.11-2.223.11-.487 0-.67-.032-.766-.056-.47-.119-1.01-.338-1.032-.985-.016-.519.567-.896 1.64-1.063.65-.1 3.167-.312 3.99-.38.088-.74.35-2.915.465-3.532.108-.593.336-1.828 1.487-1.895L15.19 21c.902 0 1.44.666 1.44 1.782 0 .48-.061 1.186-.127 1.933-.047.531-.094 1.077-.124 1.577l.622-.048c.312-.022 1.08-.074 1.467-.074.088 0 .156.003.2.008l.1.011c.424.043 1.417.144 1.417.913 0 .755-.85 1.093-1.577 1.152-.46.038-1.928.207-2.51.274-.1.735-.4 3.112-.445 5.256 0 1.512.106 1.86.414 2.644.477 1.082 1.306 1.245 1.758 1.245.396 0 .855-.168 1.295-.474.917-.9 1.003-2.715.952-3.867-.268-.058-.583-.193-.859-.518-.402-.485-.462-1.24-.145-1.8.262-.46.832-.757 1.454-.757.092 0 .183.006.271.02.55.08 1.023.42 1.252.88.054-.01.114-.023.171-.035.442-.093 1.182-.25 1.908-.25.637 0 1.16.121 1.553.359 1.35.816 1.272 2.013 1.077 3.17-.071.425-.196.843-.315 1.248-.21.703-.408 1.37-.23 1.807.2.266.478.396.848.396.639 0 1.351-.372 1.706-.584-.129-.226-.305-.54-.356-.646-.895-1.877-.83-5.167 1.619-6.46.63-.333 1.274-.501 1.914-.501 1.833 0 3.133 1.388 3.153 2.634.026 1.65-1.045 3.428-2.955 4.928.432.217.958.334 1.519.334 1.458 0 2.96-.761 4.048-2.043-1.456-3.501-1.493-8.09-.599-10.077 1.062-2.36 2.616-2.614 3.235-2.614.157 0 .31.014.458.043 1.325.262 1.999 1.147 2.188 2.871.255 2.91-1.19 7.255-2.705 9.72.8 1.343 1.67 2.024 2.59 2.024.329 0 .677-.086 1.035-.257.906-.564 1.136-.934 1.359-1.292l.036-.057c-1.45-3.474-1.552-8.406-.66-10.392 1.061-2.36 2.616-2.614 3.235-2.614.156 0 .31.014.457.043 1.325.262 2 1.147 2.19 2.871.253 2.911-1.192 7.256-2.707 9.72.8 1.362 1.498 2.024 2.134 2.024.588 0 1.17-.564 1.785-1.162l.152-.146c.23-.22.458-.33.678-.33.239 0 .444.13.565.352.205.38.14.961-.154 1.35-.898 1.354-1.978 2.077-3.113 2.077-1.146 0-2.3-.713-3.436-2.121l-.086.113c-.888 1.268-2.193 2-3.573 2-1.492 0-2.933-.85-4.089-2.404-2.092 1.974-4.072 2.399-5.388 2.399-.34 0-.68-.03-1.01-.087-.951-.164-1.845-.7-2.218-.947-.229.138-.638.381-1.044.606-.612.337-1.329.523-2.016.523-1.024 0-1.913-.413-2.505-1.165-.802-1.048-.508-2.399-.273-3.483.137-.627.266-1.22.127-1.524-.143-.314-.388-.448-.818-.448-.304 0-.646.068-.976.133l-.168.033c-.046.836-.29 3.574-1.526 5.036-.409.483-.838.815-1.312 1.016-.12.066-.243.12-.364.158-.509.162-1.01.244-1.49.244zm14.288-7.692c-.244 0-.497.079-.753.234-1.056.64-.913 2.41-.39 3.619.66-.487 2.257-1.96 2.04-3.246-.041-.248-.385-.607-.897-.607zm8.199-6.482c-.047 0-.189 0-.37.222-.732.893-1.003 3.903-.346 7.084 1.03-2.694 1.79-5.763 1.24-6.91-.093-.195-.219-.317-.384-.371-.05-.017-.097-.025-.14-.025zm7.533.045c-.048 0-.195 0-.385.231-.737.9-1.021 3.887-.379 7.029 1.068-2.764 1.819-5.757 1.286-6.87-.092-.192-.215-.311-.379-.365-.05-.016-.098-.025-.143-.025z"/>
    </g>
</svg>
