<svg xmlns="http://www.w3.org/2000/svg" width="15" height="16" viewBox="0 0 15 16">
    <g fill="#F2363C">
        <path d="M14.525 2.734c0 1.227-.995 2.222-2.222 2.222-1.227 0-2.221-.995-2.221-2.222 0-1.227.994-2.221 2.221-2.221s2.222.994 2.222 2.221zM14.525 13.67c0 1.227-.995 2.222-2.222 2.222-1.227 0-2.221-.995-2.221-2.222 0-1.226.994-2.221 2.221-2.221s2.222.995 2.222 2.221zM4.956 8.202c0 1.227-.995 2.222-2.222 2.222-1.227 0-2.221-.995-2.221-2.222 0-1.227.994-2.221 2.221-2.221s2.222.994 2.222 2.221z"/>
        <path d="M4.348 7.874c-.238 0-.469-.124-.595-.345-.186-.327-.072-.745.256-.932L10.35 2.98c.328-.188.745-.073.933.255.186.328.071.745-.256.933L4.685 7.785c-.106.06-.222.09-.337.09zM10.69 13.513c-.115 0-.231-.029-.338-.09L4.01 9.809c-.328-.187-.443-.604-.256-.933.186-.328.604-.443.932-.255l6.343 3.616c.327.186.442.604.255.932-.126.221-.357.345-.594.345z"/>
    </g>
</svg>
