<svg xmlns="http://www.w3.org/2000/svg" width="22" height="24" viewBox="0 0 22 24">
    <g fill="none">
        <g fill="#F00044">
            <path d="M3.431 11.32c-1.903 0-3.44 1.538-3.412 3.427.018 1.21.684 2.26 1.664 2.845-.333-.51-.53-1.115-.54-1.767-.027-1.884 1.51-3.422 3.413-3.422.375 0 .736.061 1.074.169V8.798c-.352-.051-.713-.08-1.074-.08h-.051v2.776c-.338-.113-.699-.174-1.074-.174zM11.658 0h-1.003c.28 1.41 1.073 2.64 2.18 3.473-.727-.96-1.168-2.16-1.177-3.473zM17.395 9.427v-3.68c-.37 0-.726-.038-1.078-.103v2.7c-1.275 0-2.512-.249-3.675-.746-.75-.318-1.448-.726-2.09-1.218l.018 8.339c-.01 1.875-.75 3.633-2.09 4.96-1.093 1.077-2.475 1.766-3.975 1.987-.352.051-.713.08-1.074.08-.895 0-1.762-.165-2.573-.47.342.197.694.38 1.06.544.885.399 1.827.694 2.812.867.206.038.412.066.623.094.094-.01.183-.023.277-.037 1.5-.22 2.882-.91 3.975-1.988 1.34-1.326 2.08-3.084 2.09-4.96l-.065-8.338c.637.492 1.336.905 2.09 1.219 1.163.496 2.405.75 3.675.75z" transform="translate(4.406 1.125)"/>
        </g>
        <path fill="#08FFF9" d="M2.78 10.838C1.453 12.15.698 13.95.698 15.82c0 1.05.235 2.067.67 2.99.446.648.957 1.253 1.52 1.796-.694-1.101-1.065-2.376-1.065-3.708 0-1.87.755-3.67 2.082-4.987C5.24 10.584 7.017 9.848 8.91 9.834v-.998c-.352-.052-.713-.08-1.073-.08-1.913.005-3.708.74-5.058 2.082zM20.723 6.764V5.761h-.009c-1.303 0-2.503-.431-3.469-1.163.84 1.107 2.067 1.894 3.478 2.166z"/>
        <path fill="#08FFF9" d="M8.77 20.264c.446.024.872-.037 1.266-.164 1.36-.445 2.339-1.71 2.339-3.202l.005-5.578V1.125h2.68c-.07-.352-.107-.708-.112-1.078H11.25v10.186l-.005 5.578c0 1.49-.98 2.756-2.339 3.201-.394.132-.82.193-1.265.165-.568-.033-1.097-.202-1.557-.474.582.895 1.566 1.5 2.686 1.561z"/>
        <path fill="#000" d="M20.723 9.473V6.77c-1.41-.272-2.639-1.06-3.478-2.166-1.106-.834-1.898-2.062-2.18-3.473h-2.68v10.186l-.005 5.578c0 1.49-.98 2.756-2.34 3.201-.393.132-.82.193-1.265.164-1.125-.06-2.105-.665-2.681-1.551-.98-.581-1.646-1.636-1.664-2.845-.028-1.885 1.51-3.422 3.412-3.422.375 0 .736.06 1.074.168V9.834c-1.894.014-3.67.75-5.007 2.077-1.33 1.317-2.086 3.117-2.086 4.987 0 1.332.37 2.607 1.065 3.708.712.694 1.509 1.294 2.376 1.796.811.309 1.678.468 2.574.468.36 0 .721-.028 1.073-.08 1.5-.22 2.883-.909 3.975-1.987 1.34-1.326 2.081-3.084 2.09-4.96l-.018-8.338c.637.492 1.336.904 2.09 1.218 1.163.497 2.405.75 3.675.75z"/>
    </g>
</svg>
